<svg width="17" height="16" viewBox="0 0 17 16" fill="none" xmlns="http://www.w3.org/2000/svg">
    <path
        d="M7.09347 3.11616L7.10003 3.11071L7.10645 3.1051L8.14704 2.19707C8.33697 2.04072 8.67553 2.046 8.85193 2.19613C8.85215 2.19632 8.85237 2.1965 8.85259 2.19669L9.90214 3.1001C9.90251 3.10042 9.90289 3.10075 9.90326 3.10107C10.0919 3.26425 10.324 3.38164 10.5296 3.45803C10.7355 3.53453 10.9868 3.59666 11.2333 3.59666H12.3667C12.6591 3.59666 12.9033 3.84088 12.9033 4.13333V5.26667C12.9033 5.51553 12.965 5.76681 13.0424 5.97416C13.1198 6.18109 13.2374 6.41006 13.399 6.59685C13.3993 6.59719 13.3996 6.59753 13.3999 6.59786L14.3033 7.64741C14.3035 7.64761 14.3037 7.64781 14.3038 7.64802C14.4563 7.82708 14.4576 8.17379 14.3079 8.35495L13.4066 9.40213C13.4063 9.40248 13.406 9.40283 13.4057 9.40318C13.2424 9.59186 13.125 9.82399 13.0486 10.0296C12.9721 10.2355 12.91 10.4868 12.91 10.7333V11.8667C12.91 12.1591 12.6658 12.4033 12.3733 12.4033H11.24C10.9911 12.4033 10.7399 12.465 10.5325 12.5424C10.3256 12.6197 10.0967 12.7374 9.90998 12.8989C9.90959 12.8992 9.9092 12.8996 9.90881 12.8999L8.86111 13.8017C8.67145 13.9593 8.33154 13.9544 8.15469 13.8038C8.15449 13.8037 8.15428 13.8035 8.15408 13.8033L7.10453 12.8999C7.1042 12.8996 7.10386 12.8993 7.10352 12.899C6.91483 12.7358 6.68269 12.6184 6.47707 12.542C6.27119 12.4655 6.01988 12.4033 5.77334 12.4033H4.62C4.32755 12.4033 4.08334 12.1591 4.08334 11.8667V10.7267C4.08334 10.4796 4.02095 10.23 3.94586 10.0271C3.87039 9.82325 3.7565 9.5976 3.60284 9.41319L3.60286 9.41317L3.59839 9.40791L2.70078 8.35074C2.70049 8.3504 2.7002 8.35005 2.69991 8.3497C2.54892 8.16878 2.54892 7.83121 2.69991 7.6503L3.59839 6.59209L3.59841 6.59211L3.60284 6.5868C3.7565 6.4024 3.87039 6.17675 3.94586 5.97286C4.02095 5.77 4.08334 5.52037 4.08334 5.27333V4.13333C4.08334 3.84088 4.32755 3.59666 4.62 3.59666H5.77334C6.01953 3.59666 6.27007 3.53466 6.47369 3.46011C6.67786 3.38536 6.90698 3.27157 7.09347 3.11616ZM10.9733 6.35H10.2075L10.2852 5.8455C10.4188 5.1624 9.99633 4.47578 9.35866 4.24924C9.02148 4.12134 8.68211 4.15145 8.41378 4.24577C8.15062 4.33828 7.88711 4.51638 7.71481 4.77901L7.13832 5.63483C6.87557 5.49479 6.58869 5.46333 6.35334 5.46333H6.02667C5.70863 5.46333 5.29649 5.52077 4.97695 5.826C4.64893 6.13934 4.58334 6.55395 4.58334 6.87333V10.06C4.58334 10.3794 4.64893 10.794 4.97695 11.1073C5.29649 11.4126 5.70863 11.47 6.02667 11.47H6.34667C6.61664 11.47 6.95186 11.4284 7.24181 11.2287L7.52546 11.4506C7.71402 11.62 7.9394 11.7068 8.09395 11.7525C8.2775 11.8068 8.47741 11.8367 8.66 11.8367H9.89334C10.6359 11.8367 11.359 11.3143 11.5592 10.5872L12.3303 8.24074C12.4722 7.83147 12.4531 7.36526 12.1944 6.96956L12.1874 6.95885L12.18 6.94838C11.8888 6.53457 11.4257 6.35 10.9733 6.35Z"
        fill="#003D79" stroke="#003D79" stroke-width="1.5" />
</svg>
