<svg fill="none" height="64" viewBox="0 0 140 64" width="140" xmlns="http://www.w3.org/2000/svg">
    <g opacity="0.16">
        <line stroke="url(#paint0_linear_162_104014)" stroke-width="0.5"
            transform="matrix(0.479983 0.877278 -0.853991 0.520287 -58.5594 -56.8687)" x2="299.703"
            y1="-0.25" y2="-0.25" />
        <line stroke="url(#paint1_linear_162_104014)" stroke-width="0.5"
            transform="matrix(0.479983 0.877278 -0.853991 0.520287 -55.6256 -58.5625)" x2="299.703"
            y1="-0.25" y2="-0.25" />
        <line stroke="url(#paint2_linear_162_104014)" stroke-width="0.5"
            transform="matrix(0.479983 0.877278 -0.853991 0.520287 -52.6918 -60.2563)" x2="299.703"
            y1="-0.25" y2="-0.25" />
        <line stroke="url(#paint3_linear_162_104014)" stroke-width="0.5"
            transform="matrix(0.479983 0.877278 -0.853991 0.520287 -49.7579 -61.9502)" x2="299.703"
            y1="-0.25" y2="-0.25" />
        <line stroke="url(#paint4_linear_162_104014)" stroke-width="0.5"
            transform="matrix(0.479983 0.877278 -0.853991 0.520287 -46.824 -63.644)" x2="299.703"
            y1="-0.25" y2="-0.25" />
        <line stroke="url(#paint5_linear_162_104014)" stroke-width="0.5"
            transform="matrix(0.479983 0.877278 -0.853991 0.520287 -43.8902 -65.3379)" x2="299.703"
            y1="-0.25" y2="-0.25" />
        <line stroke="url(#paint6_linear_162_104014)" stroke-width="0.5"
            transform="matrix(0.479983 0.877278 -0.853991 0.520287 -40.9564 -67.0317)" x2="299.703"
            y1="-0.25" y2="-0.25" />
        <line stroke="url(#paint7_linear_162_104014)" stroke-width="0.5"
            transform="matrix(0.479983 0.877278 -0.853991 0.520287 -38.0225 -68.7256)" x2="299.703"
            y1="-0.25" y2="-0.25" />
        <line stroke="url(#paint8_linear_162_104014)" stroke-width="0.5"
            transform="matrix(0.479983 0.877278 -0.853991 0.520287 -35.0887 -70.4194)" x2="299.703"
            y1="-0.25" y2="-0.25" />
        <line stroke="url(#paint9_linear_162_104014)" stroke-width="0.5"
            transform="matrix(0.479983 0.877278 -0.853991 0.520287 -32.1548 -72.1133)" x2="299.703"
            y1="-0.25" y2="-0.25" />
        <line stroke="url(#paint10_linear_162_104014)" stroke-width="0.5"
            transform="matrix(0.479983 0.877278 -0.853991 0.520287 -29.221 -73.8071)" x2="299.703"
            y1="-0.25" y2="-0.25" />
        <line stroke="url(#paint11_linear_162_104014)" stroke-width="0.5"
            transform="matrix(0.479983 0.877278 -0.853991 0.520287 -26.2872 -75.501)" x2="299.703"
            y1="-0.25" y2="-0.25" />
        <line stroke="url(#paint12_linear_162_104014)" stroke-width="0.5"
            transform="matrix(0.479983 0.877278 -0.853991 0.520287 -23.3533 -77.1948)" x2="299.703"
            y1="-0.25" y2="-0.25" />
        <line stroke="url(#paint13_linear_162_104014)" stroke-width="0.5"
            transform="matrix(0.479983 0.877278 -0.853991 0.520287 -20.4195 -78.8887)" x2="299.703"
            y1="-0.25" y2="-0.25" />
        <line stroke="url(#paint14_linear_162_104014)" stroke-width="0.5"
            transform="matrix(0.479983 0.877278 -0.853991 0.520287 -17.4857 -80.5825)" x2="299.703"
            y1="-0.25" y2="-0.25" />
        <line stroke="url(#paint15_linear_162_104014)" stroke-width="0.5"
            transform="matrix(0.479983 0.877278 -0.853991 0.520287 -14.5518 -82.2764)" x2="299.703"
            y1="-0.25" y2="-0.25" />
        <line stroke="url(#paint16_linear_162_104014)" stroke-width="0.5"
            transform="matrix(0.479983 0.877278 -0.853991 0.520287 -11.618 -83.9702)" x2="299.703"
            y1="-0.25" y2="-0.25" />
        <line stroke="url(#paint17_linear_162_104014)" stroke-width="0.5"
            transform="matrix(0.479983 0.877278 -0.853991 0.520287 -8.68414 -85.6641)" x2="299.703"
            y1="-0.25" y2="-0.25" />
        <line stroke="url(#paint18_linear_162_104014)" stroke-width="0.5"
            transform="matrix(0.479983 0.877278 -0.853991 0.520287 -5.75031 -87.3579)" x2="299.703"
            y1="-0.25" y2="-0.25" />
        <line stroke="url(#paint19_linear_162_104014)" stroke-width="0.5"
            transform="matrix(0.479983 0.877278 -0.853991 0.520287 -2.81647 -89.0518)" x2="299.703"
            y1="-0.25" y2="-0.25" />
        <line stroke="url(#paint20_linear_162_104014)" stroke-width="0.5"
            transform="matrix(0.479983 0.877278 -0.853991 0.520287 0.117371 -90.7456)" x2="299.703"
            y1="-0.25" y2="-0.25" />
        <line stroke="url(#paint21_linear_162_104014)" stroke-width="0.5"
            transform="matrix(0.479983 0.877278 -0.853991 0.520287 3.05121 -92.4395)" x2="299.703"
            y1="-0.25" y2="-0.25" />
        <line stroke="url(#paint22_linear_162_104014)" stroke-width="0.5"
            transform="matrix(0.479983 0.877278 -0.853991 0.520287 5.98505 -94.1333)" x2="299.703"
            y1="-0.25" y2="-0.25" />
        <line stroke="url(#paint23_linear_162_104014)" stroke-width="0.5"
            transform="matrix(0.479983 0.877278 -0.853991 0.520287 8.91888 -95.8271)" x2="299.703"
            y1="-0.25" y2="-0.25" />
        <line stroke="url(#paint24_linear_162_104014)" stroke-width="0.5"
            transform="matrix(0.479983 0.877278 -0.853991 0.520287 11.8528 -97.521)" x2="299.703"
            y1="-0.25" y2="-0.25" />
        <line stroke="url(#paint25_linear_162_104014)" stroke-width="0.5"
            transform="matrix(0.479983 0.877278 -0.853991 0.520287 14.7866 -99.2148)" x2="299.703"
            y1="-0.25" y2="-0.25" />
        <line stroke="url(#paint26_linear_162_104014)" stroke-width="0.5"
            transform="matrix(0.479983 0.877278 -0.853991 0.520287 17.7205 -100.909)" x2="299.703"
            y1="-0.25" y2="-0.25" />
        <line stroke="url(#paint27_linear_162_104014)" stroke-width="0.5"
            transform="matrix(0.479983 0.877278 -0.853991 0.520287 20.6543 -102.603)" x2="299.703"
            y1="-0.25" y2="-0.25" />
        <line stroke="url(#paint28_linear_162_104014)" stroke-width="0.5"
            transform="matrix(0.479983 0.877278 -0.853991 0.520287 23.5881 -104.296)" x2="299.703"
            y1="-0.25" y2="-0.25" />
        <line stroke="url(#paint29_linear_162_104014)" stroke-width="0.5"
            transform="matrix(0.479983 0.877278 -0.853991 0.520287 26.522 -105.99)" x2="299.703"
            y1="-0.25" y2="-0.25" />
        <line stroke="url(#paint30_linear_162_104014)" stroke-width="0.5"
            transform="matrix(0.479983 0.877278 -0.853991 0.520287 29.4558 -107.684)" x2="299.703"
            y1="-0.25" y2="-0.25" />
        <line stroke="url(#paint31_linear_162_104014)" stroke-width="0.5"
            transform="matrix(0.479983 0.877278 -0.853991 0.520287 32.3896 -109.378)" x2="299.703"
            y1="-0.25" y2="-0.25" />
        <line stroke="url(#paint32_linear_162_104014)" stroke-width="0.5"
            transform="matrix(0.479983 0.877278 -0.853991 0.520287 35.3235 -111.072)" x2="299.703"
            y1="-0.25" y2="-0.25" />
        <line stroke="url(#paint33_linear_162_104014)" stroke-width="0.5"
            transform="matrix(0.479983 0.877278 -0.853991 0.520287 38.2573 -112.766)" x2="299.703"
            y1="-0.25" y2="-0.25" />
        <line stroke="url(#paint34_linear_162_104014)" stroke-width="0.5"
            transform="matrix(0.479983 0.877278 -0.853991 0.520287 41.1912 -114.46)" x2="299.703"
            y1="-0.25" y2="-0.25" />
        <line stroke="url(#paint35_linear_162_104014)" stroke-width="0.5"
            transform="matrix(0.479983 0.877278 -0.853991 0.520287 44.1251 -116.154)" x2="299.703"
            y1="-0.25" y2="-0.25" />
        <line stroke="url(#paint36_linear_162_104014)" stroke-width="0.5"
            transform="matrix(0.479983 0.877278 -0.853991 0.520287 47.0589 -117.847)" x2="299.703"
            y1="-0.25" y2="-0.25" />
        <line stroke="url(#paint37_linear_162_104014)" stroke-width="0.5"
            transform="matrix(0.479983 0.877278 -0.853991 0.520287 49.9927 -119.541)" x2="299.703"
            y1="-0.25" y2="-0.25" />
        <line stroke="url(#paint38_linear_162_104014)" stroke-width="0.5"
            transform="matrix(0.479983 0.877278 -0.853991 0.520287 52.9266 -121.235)" x2="299.703"
            y1="-0.25" y2="-0.25" />
        <line stroke="url(#paint39_linear_162_104014)" stroke-width="0.5"
            transform="matrix(0.479983 0.877278 -0.853991 0.520287 55.8604 -122.929)" x2="299.703"
            y1="-0.25" y2="-0.25" />
        <line stroke="url(#paint40_linear_162_104014)" stroke-width="0.5"
            transform="matrix(0.479983 0.877278 -0.853991 0.520287 58.7943 -124.623)" x2="299.703"
            y1="-0.25" y2="-0.25" />
        <line stroke="url(#paint41_linear_162_104014)" stroke-width="0.5"
            transform="matrix(0.479983 0.877278 -0.853991 0.520287 61.7281 -126.317)" x2="299.703"
            y1="-0.25" y2="-0.25" />
        <line stroke="url(#paint42_linear_162_104014)" stroke-width="0.5"
            transform="matrix(0.479983 0.877278 -0.853991 0.520287 64.6619 -128.01)" x2="299.703"
            y1="-0.25" y2="-0.25" />
        <line stroke="url(#paint43_linear_162_104014)" stroke-width="0.5"
            transform="matrix(0.479983 0.877278 -0.853991 0.520287 67.5958 -129.704)" x2="299.703"
            y1="-0.25" y2="-0.25" />
        <line stroke="url(#paint44_linear_162_104014)" stroke-width="0.5"
            transform="matrix(0.479983 0.877278 -0.853991 0.520287 70.5296 -131.398)" x2="299.703"
            y1="-0.25" y2="-0.25" />
        <line stroke="url(#paint45_linear_162_104014)" stroke-width="0.5"
            transform="matrix(0.479983 0.877278 -0.853991 0.520287 73.4634 -133.092)" x2="299.703"
            y1="-0.25" y2="-0.25" />
        <line stroke="url(#paint46_linear_162_104014)" stroke-width="0.5"
            transform="matrix(0.479983 0.877278 -0.853991 0.520287 76.3973 -134.786)" x2="299.703"
            y1="-0.25" y2="-0.25" />
        <line stroke="url(#paint47_linear_162_104014)" stroke-width="0.5"
            transform="matrix(0.479983 0.877278 -0.853991 0.520287 79.3311 -136.48)" x2="299.703"
            y1="-0.25" y2="-0.25" />
        <line stroke="url(#paint48_linear_162_104014)" stroke-width="0.5"
            transform="matrix(0.479983 0.877278 -0.853991 0.520287 82.265 -138.174)" x2="299.703"
            y1="-0.25" y2="-0.25" />
        <line stroke="url(#paint49_linear_162_104014)" stroke-width="0.5"
            transform="matrix(0.479983 0.877278 -0.853991 0.520287 85.1989 -139.867)" x2="299.703"
            y1="-0.25" y2="-0.25" />
        <line stroke="url(#paint50_linear_162_104014)" stroke-width="0.5"
            transform="matrix(0.479983 0.877278 -0.853991 0.520287 88.1327 -141.561)" x2="299.703"
            y1="-0.25" y2="-0.25" />
        <line stroke="url(#paint51_linear_162_104014)" stroke-width="0.5"
            transform="matrix(0.479983 0.877278 -0.853991 0.520287 91.0665 -143.255)" x2="299.703"
            y1="-0.25" y2="-0.25" />
    </g>
    <defs>
        <linearGradient gradientUnits="userSpaceOnUse" id="paint0_linear_162_104014" x1="149.851"
            x2="149.851" y1="0" y2="1">
            <stop stop-color="white" />
            <stop offset="1" stop-color="#003D79" />
        </linearGradient>
        <linearGradient gradientUnits="userSpaceOnUse" id="paint1_linear_162_104014" x1="149.851"
            x2="149.851" y1="0" y2="1">
            <stop stop-color="white" />
            <stop offset="1" stop-color="#003D79" />
        </linearGradient>
        <linearGradient gradientUnits="userSpaceOnUse" id="paint2_linear_162_104014" x1="149.851"
            x2="149.851" y1="0" y2="1">
            <stop stop-color="white" />
            <stop offset="1" stop-color="#003D79" />
        </linearGradient>
        <linearGradient gradientUnits="userSpaceOnUse" id="paint3_linear_162_104014" x1="149.851"
            x2="149.851" y1="0" y2="1">
            <stop stop-color="white" />
            <stop offset="1" stop-color="#003D79" />
        </linearGradient>
        <linearGradient gradientUnits="userSpaceOnUse" id="paint4_linear_162_104014" x1="149.851"
            x2="149.851" y1="0" y2="1">
            <stop stop-color="white" />
            <stop offset="1" stop-color="#003D79" />
        </linearGradient>
        <linearGradient gradientUnits="userSpaceOnUse" id="paint5_linear_162_104014" x1="149.851"
            x2="149.851" y1="0" y2="1">
            <stop stop-color="white" />
            <stop offset="1" stop-color="#003D79" />
        </linearGradient>
        <linearGradient gradientUnits="userSpaceOnUse" id="paint6_linear_162_104014" x1="149.851"
            x2="149.851" y1="0" y2="1">
            <stop stop-color="white" />
            <stop offset="1" stop-color="#003D79" />
        </linearGradient>
        <linearGradient gradientUnits="userSpaceOnUse" id="paint7_linear_162_104014" x1="149.851"
            x2="149.851" y1="0" y2="1">
            <stop stop-color="white" />
            <stop offset="1" stop-color="#003D79" />
        </linearGradient>
        <linearGradient gradientUnits="userSpaceOnUse" id="paint8_linear_162_104014" x1="149.851"
            x2="149.851" y1="0" y2="1">
            <stop stop-color="white" />
            <stop offset="1" stop-color="#003D79" />
        </linearGradient>
        <linearGradient gradientUnits="userSpaceOnUse" id="paint9_linear_162_104014" x1="149.851"
            x2="149.851" y1="0" y2="1">
            <stop stop-color="white" />
            <stop offset="1" stop-color="#003D79" />
        </linearGradient>
        <linearGradient gradientUnits="userSpaceOnUse" id="paint10_linear_162_104014" x1="149.851"
            x2="149.851" y1="0" y2="1">
            <stop stop-color="white" />
            <stop offset="1" stop-color="#003D79" />
        </linearGradient>
        <linearGradient gradientUnits="userSpaceOnUse" id="paint11_linear_162_104014" x1="149.851"
            x2="149.851" y1="0" y2="1">
            <stop stop-color="white" />
            <stop offset="1" stop-color="#003D79" />
        </linearGradient>
        <linearGradient gradientUnits="userSpaceOnUse" id="paint12_linear_162_104014" x1="149.851"
            x2="149.851" y1="0" y2="1">
            <stop stop-color="white" />
            <stop offset="1" stop-color="#003D79" />
        </linearGradient>
        <linearGradient gradientUnits="userSpaceOnUse" id="paint13_linear_162_104014" x1="149.851"
            x2="149.851" y1="0" y2="1">
            <stop stop-color="white" />
            <stop offset="1" stop-color="#003D79" />
        </linearGradient>
        <linearGradient gradientUnits="userSpaceOnUse" id="paint14_linear_162_104014" x1="149.851"
            x2="149.851" y1="0" y2="1">
            <stop stop-color="white" />
            <stop offset="1" stop-color="#003D79" />
        </linearGradient>
        <linearGradient gradientUnits="userSpaceOnUse" id="paint15_linear_162_104014" x1="149.851"
            x2="149.851" y1="0" y2="1">
            <stop stop-color="white" />
            <stop offset="1" stop-color="#003D79" />
        </linearGradient>
        <linearGradient gradientUnits="userSpaceOnUse" id="paint16_linear_162_104014" x1="149.851"
            x2="149.851" y1="0" y2="1">
            <stop stop-color="white" />
            <stop offset="1" stop-color="#003D79" />
        </linearGradient>
        <linearGradient gradientUnits="userSpaceOnUse" id="paint17_linear_162_104014" x1="149.851"
            x2="149.851" y1="0" y2="1">
            <stop stop-color="white" />
            <stop offset="1" stop-color="#003D79" />
        </linearGradient>
        <linearGradient gradientUnits="userSpaceOnUse" id="paint18_linear_162_104014" x1="149.851"
            x2="149.851" y1="0" y2="1">
            <stop stop-color="white" />
            <stop offset="1" stop-color="#003D79" />
        </linearGradient>
        <linearGradient gradientUnits="userSpaceOnUse" id="paint19_linear_162_104014" x1="149.851"
            x2="149.851" y1="0" y2="1">
            <stop stop-color="white" />
            <stop offset="1" stop-color="#003D79" />
        </linearGradient>
        <linearGradient gradientUnits="userSpaceOnUse" id="paint20_linear_162_104014" x1="149.851"
            x2="149.851" y1="0" y2="1">
            <stop stop-color="white" />
            <stop offset="1" stop-color="#003D79" />
        </linearGradient>
        <linearGradient gradientUnits="userSpaceOnUse" id="paint21_linear_162_104014" x1="149.851"
            x2="149.851" y1="0" y2="1">
            <stop stop-color="white" />
            <stop offset="1" stop-color="#003D79" />
        </linearGradient>
        <linearGradient gradientUnits="userSpaceOnUse" id="paint22_linear_162_104014" x1="149.851"
            x2="149.851" y1="0" y2="1">
            <stop stop-color="white" />
            <stop offset="1" stop-color="#003D79" />
        </linearGradient>
        <linearGradient gradientUnits="userSpaceOnUse" id="paint23_linear_162_104014" x1="149.851"
            x2="149.851" y1="0" y2="1">
            <stop stop-color="white" />
            <stop offset="1" stop-color="#003D79" />
        </linearGradient>
        <linearGradient gradientUnits="userSpaceOnUse" id="paint24_linear_162_104014" x1="149.851"
            x2="149.851" y1="0" y2="1">
            <stop stop-color="white" />
            <stop offset="1" stop-color="#003D79" />
        </linearGradient>
        <linearGradient gradientUnits="userSpaceOnUse" id="paint25_linear_162_104014" x1="149.851"
            x2="149.851" y1="0" y2="1">
            <stop stop-color="white" />
            <stop offset="1" stop-color="#003D79" />
        </linearGradient>
        <linearGradient gradientUnits="userSpaceOnUse" id="paint26_linear_162_104014" x1="149.851"
            x2="149.851" y1="0" y2="1">
            <stop stop-color="white" />
            <stop offset="1" stop-color="#003D79" />
        </linearGradient>
        <linearGradient gradientUnits="userSpaceOnUse" id="paint27_linear_162_104014" x1="149.851"
            x2="149.851" y1="0" y2="1">
            <stop stop-color="white" />
            <stop offset="1" stop-color="#003D79" />
        </linearGradient>
        <linearGradient gradientUnits="userSpaceOnUse" id="paint28_linear_162_104014" x1="149.851"
            x2="149.851" y1="0" y2="1">
            <stop stop-color="white" />
            <stop offset="1" stop-color="#003D79" />
        </linearGradient>
        <linearGradient gradientUnits="userSpaceOnUse" id="paint29_linear_162_104014" x1="149.851"
            x2="149.851" y1="0" y2="1">
            <stop stop-color="white" />
            <stop offset="1" stop-color="#003D79" />
        </linearGradient>
        <linearGradient gradientUnits="userSpaceOnUse" id="paint30_linear_162_104014" x1="149.851"
            x2="149.851" y1="0" y2="1">
            <stop stop-color="white" />
            <stop offset="1" stop-color="#003D79" />
        </linearGradient>
        <linearGradient gradientUnits="userSpaceOnUse" id="paint31_linear_162_104014" x1="149.851"
            x2="149.851" y1="0" y2="1">
            <stop stop-color="white" />
            <stop offset="1" stop-color="#003D79" />
        </linearGradient>
        <linearGradient gradientUnits="userSpaceOnUse" id="paint32_linear_162_104014" x1="149.851"
            x2="149.851" y1="0" y2="1">
            <stop stop-color="white" />
            <stop offset="1" stop-color="#003D79" />
        </linearGradient>
        <linearGradient gradientUnits="userSpaceOnUse" id="paint33_linear_162_104014" x1="149.851"
            x2="149.851" y1="0" y2="1">
            <stop stop-color="white" />
            <stop offset="1" stop-color="#003D79" />
        </linearGradient>
        <linearGradient gradientUnits="userSpaceOnUse" id="paint34_linear_162_104014" x1="149.851"
            x2="149.851" y1="0" y2="1">
            <stop stop-color="white" />
            <stop offset="1" stop-color="#003D79" />
        </linearGradient>
        <linearGradient gradientUnits="userSpaceOnUse" id="paint35_linear_162_104014" x1="149.851"
            x2="149.851" y1="0" y2="1">
            <stop stop-color="white" />
            <stop offset="1" stop-color="#003D79" />
        </linearGradient>
        <linearGradient gradientUnits="userSpaceOnUse" id="paint36_linear_162_104014" x1="149.851"
            x2="149.851" y1="0" y2="1">
            <stop stop-color="white" />
            <stop offset="1" stop-color="#003D79" />
        </linearGradient>
        <linearGradient gradientUnits="userSpaceOnUse" id="paint37_linear_162_104014" x1="149.851"
            x2="149.851" y1="0" y2="1">
            <stop stop-color="white" />
            <stop offset="1" stop-color="#003D79" />
        </linearGradient>
        <linearGradient gradientUnits="userSpaceOnUse" id="paint38_linear_162_104014" x1="149.851"
            x2="149.851" y1="0" y2="1">
            <stop stop-color="white" />
            <stop offset="1" stop-color="#003D79" />
        </linearGradient>
        <linearGradient gradientUnits="userSpaceOnUse" id="paint39_linear_162_104014" x1="149.851"
            x2="149.851" y1="0" y2="1">
            <stop stop-color="white" />
            <stop offset="1" stop-color="#003D79" />
        </linearGradient>
        <linearGradient gradientUnits="userSpaceOnUse" id="paint40_linear_162_104014" x1="149.851"
            x2="149.851" y1="0" y2="1">
            <stop stop-color="white" />
            <stop offset="1" stop-color="#003D79" />
        </linearGradient>
        <linearGradient gradientUnits="userSpaceOnUse" id="paint41_linear_162_104014" x1="149.851"
            x2="149.851" y1="0" y2="1">
            <stop stop-color="white" />
            <stop offset="1" stop-color="#003D79" />
        </linearGradient>
        <linearGradient gradientUnits="userSpaceOnUse" id="paint42_linear_162_104014" x1="149.851"
            x2="149.851" y1="0" y2="1">
            <stop stop-color="white" />
            <stop offset="1" stop-color="#003D79" />
        </linearGradient>
        <linearGradient gradientUnits="userSpaceOnUse" id="paint43_linear_162_104014" x1="149.851"
            x2="149.851" y1="0" y2="1">
            <stop stop-color="white" />
            <stop offset="1" stop-color="#003D79" />
        </linearGradient>
        <linearGradient gradientUnits="userSpaceOnUse" id="paint44_linear_162_104014" x1="149.851"
            x2="149.851" y1="0" y2="1">
            <stop stop-color="white" />
            <stop offset="1" stop-color="#003D79" />
        </linearGradient>
        <linearGradient gradientUnits="userSpaceOnUse" id="paint45_linear_162_104014" x1="149.851"
            x2="149.851" y1="0" y2="1">
            <stop stop-color="white" />
            <stop offset="1" stop-color="#003D79" />
        </linearGradient>
        <linearGradient gradientUnits="userSpaceOnUse" id="paint46_linear_162_104014" x1="149.851"
            x2="149.851" y1="0" y2="1">
            <stop stop-color="white" />
            <stop offset="1" stop-color="#003D79" />
        </linearGradient>
        <linearGradient gradientUnits="userSpaceOnUse" id="paint47_linear_162_104014" x1="149.851"
            x2="149.851" y1="0" y2="1">
            <stop stop-color="white" />
            <stop offset="1" stop-color="#003D79" />
        </linearGradient>
        <linearGradient gradientUnits="userSpaceOnUse" id="paint48_linear_162_104014" x1="149.851"
            x2="149.851" y1="0" y2="1">
            <stop stop-color="white" />
            <stop offset="1" stop-color="#003D79" />
        </linearGradient>
        <linearGradient gradientUnits="userSpaceOnUse" id="paint49_linear_162_104014" x1="149.851"
            x2="149.851" y1="0" y2="1">
            <stop stop-color="white" />
            <stop offset="1" stop-color="#003D79" />
        </linearGradient>
        <linearGradient gradientUnits="userSpaceOnUse" id="paint50_linear_162_104014" x1="149.851"
            x2="149.851" y1="0" y2="1">
            <stop stop-color="white" />
            <stop offset="1" stop-color="#003D79" />
        </linearGradient>
        <linearGradient gradientUnits="userSpaceOnUse" id="paint51_linear_162_104014" x1="149.851"
            x2="149.851" y1="0" y2="1">
            <stop stop-color="white" />
            <stop offset="1" stop-color="#003D79" />
        </linearGradient>
    </defs>
</svg>
