<svg width="17" height="16" viewBox="0 0 17 16" fill="none" xmlns="http://www.w3.org/2000/svg">
    <path
        d="M8.23761 13.4748L8.23759 13.4748L8.23448 13.4795C8.1962 13.5374 8.09091 13.6323 7.92672 13.6904C7.76907 13.7461 7.62353 13.7443 7.51582 13.7041L7.50431 13.6998L7.49267 13.6959C7.18096 13.5909 6.98419 13.2177 7.04001 12.9571L7.0442 12.9376L7.04735 12.9178L7.39402 10.7378L7.3955 10.7285L7.39674 10.7191C7.45 10.3197 7.34235 9.93211 7.09626 9.6281L7.0846 9.61371L7.07225 9.5999C6.82297 9.32129 6.45601 9.14334 6.05332 9.14334H3.31332C2.98927 9.14334 2.78253 9.01693 2.6785 8.87289C2.58809 8.7429 2.54135 8.53805 2.64075 8.25576L2.64339 8.24826L2.64588 8.2407L4.28588 3.24737L4.29435 3.22157L4.30093 3.19524C4.41812 2.72648 4.99874 2.26334 5.57332 2.26334H8.17332C8.3206 2.26334 8.5167 2.29012 8.6987 2.34447C8.78764 2.37103 8.86208 2.4009 8.91893 2.43023C8.94686 2.44463 8.96773 2.45745 8.98246 2.46771C8.99735 2.47807 9.00321 2.48388 9.00299 2.48367L9.03673 2.5174L9.07447 2.5466L9.92704 3.206C9.92709 3.20604 9.92714 3.20608 9.92719 3.20612C10.0744 3.32037 10.1567 3.49004 10.1567 3.66667V10.44C10.1567 10.5564 10.1217 10.6715 10.0567 10.7696C10.0564 10.7699 10.0562 10.7703 10.056 10.7706L8.23761 13.4748Z"
        fill="white" stroke="white" stroke-width="1.5" />
    <path
        d="M13.7133 10.99H13.0267C12.5794 10.99 12.4549 10.8983 12.4291 10.8738C12.4128 10.8583 12.3233 10.7641 12.3233 10.36V3.65334C12.3233 3.24463 12.4134 3.14871 12.4301 3.13274C12.4557 3.1084 12.5793 3.01667 13.0267 3.01667H13.7133C14.1607 3.01667 14.2843 3.1084 14.3099 3.13274C14.3266 3.14871 14.4167 3.24463 14.4167 3.65334V10.3533C14.4167 10.762 14.3266 10.858 14.3099 10.8739C14.2843 10.8983 14.1607 10.99 13.7133 10.99Z"
        fill="white" stroke="white" stroke-width="1.5" />
</svg>
