<svg fill="none" height="32" viewBox="0 0 33 32" width="33" xmlns="http://www.w3.org/2000/svg">
    <path
        d="M26.06 15.6667H21.5C20.9533 15.6667 20.5 15.2134 20.5 14.6667V5.34675C20.5 4.36008 20.8867 3.44008 21.58 2.74675C22.2733 2.05341 23.1933 1.66675 24.18 1.66675H24.1934C25.86 1.68008 27.4333 2.33341 28.6333 3.52008C29.8333 4.73341 30.4867 6.33342 30.4867 8.00008V11.2267C30.5 13.8801 28.7133 15.6667 26.06 15.6667ZM22.5 13.6667H26.06C27.6066 13.6667 28.5 12.7734 28.5 11.2267V8.00008C28.5 6.85342 28.0466 5.76008 27.2333 4.93341C26.42 4.13341 25.34 3.68008 24.1934 3.66675C24.1934 3.66675 24.1933 3.66675 24.18 3.66675C23.74 3.66675 23.3133 3.84008 22.9933 4.16008C22.6733 4.48008 22.5 4.89342 22.5 5.34675V13.6667Z"
        fill="#007BA8" />
    <path
        d="M12.1663 31.1067C11.5396 31.1067 10.953 30.8667 10.513 30.4134L8.2996 28.1867C8.1796 28.0667 7.99299 28.0534 7.85966 28.1601L5.57963 29.8667C4.87296 30.4001 3.93961 30.4934 3.13961 30.0934C2.33961 29.6934 1.84631 28.8934 1.84631 28.0001V8.00008C1.84631 3.97341 4.15298 1.66675 8.17965 1.66675H24.1796C24.7263 1.66675 25.1796 2.12008 25.1796 2.66675C25.1796 3.21341 24.7263 3.66675 24.1796 3.66675C23.2596 3.66675 22.513 4.41341 22.513 5.33341V28.0001C22.513 28.8934 22.0196 29.6934 21.2196 30.0934C20.4329 30.4934 19.4863 30.4001 18.7797 29.8667L16.4996 28.1601C16.3663 28.0534 16.1796 28.0801 16.073 28.1867L13.833 30.4267C13.3796 30.8667 12.793 31.1067 12.1663 31.1067ZM8.04626 26.0934C8.6596 26.0934 9.2596 26.3201 9.71293 26.7867L11.9263 29.0134C12.0063 29.0934 12.113 29.1067 12.1663 29.1067C12.2196 29.1067 12.3263 29.0934 12.4063 29.0134L14.6463 26.7734C15.4729 25.9467 16.7797 25.8667 17.6997 26.5734L19.9663 28.2668C20.1129 28.3734 20.2463 28.3334 20.3129 28.2934C20.3796 28.2534 20.4996 28.1734 20.4996 28.0001V5.33341C20.4996 4.73341 20.6463 4.16008 20.8996 3.66675H8.1663C5.2063 3.66675 3.83297 5.04008 3.83297 8.00008V28.0001C3.83297 28.1867 3.95299 28.2667 4.01965 28.3067C4.09965 28.3467 4.233 28.3734 4.36633 28.2668L6.64628 26.5601C7.05961 26.2534 7.55293 26.0934 8.04626 26.0934Z"
        fill="#007BA8" />
    <path
        d="M16.1666 13H8.16663C7.61996 13 7.16663 12.5467 7.16663 12C7.16663 11.4533 7.61996 11 8.16663 11H16.1666C16.7133 11 17.1666 11.4533 17.1666 12C17.1666 12.5467 16.7133 13 16.1666 13Z"
        fill="#007BA8" />
    <path
        d="M15.1666 18.3333H9.16663C8.61996 18.3333 8.16663 17.8799 8.16663 17.3333C8.16663 16.7866 8.61996 16.3333 9.16663 16.3333H15.1666C15.7133 16.3333 16.1666 16.7866 16.1666 17.3333C16.1666 17.8799 15.7133 18.3333 15.1666 18.3333Z"
        fill="#007BA8" />
</svg>
