<svg fill="none" height="16" viewBox="0 0 16 16" width="16" xmlns="http://www.w3.org/2000/svg">
    <path
        d="M13.9167 5.03327C13.9167 5.04468 13.9127 5.0566 13.9013 5.06794C13.89 5.07927 13.8781 5.08327 13.8667 5.08327H2.13334C2.12193 5.08327 2.11001 5.07927 2.09867 5.06794C2.08734 5.0566 2.08334 5.04469 2.08334 5.03327V5.0266C2.08334 3.91415 2.98089 3.0166 4.09334 3.0166H11.9C13.0125 3.0166 13.9167 3.92082 13.9167 5.03327Z"
        fill="#000F1E" stroke="#000F1E" stroke-width="1.5" />
    <path
        d="M2.08334 10.9733V7.63325C2.08334 7.62183 2.08734 7.60992 2.09867 7.59858C2.11001 7.58725 2.12193 7.58325 2.13334 7.58325H13.8667C13.8781 7.58325 13.89 7.58725 13.9013 7.59858C13.9127 7.60992 13.9167 7.62184 13.9167 7.63325V10.9666C13.9167 12.079 13.0125 12.9833 11.9 12.9833H4.09334C2.98089 12.9833 2.08334 12.0857 2.08334 10.9733ZM4.00001 12.2499H5.33334C5.65273 12.2499 5.94512 12.1285 6.16668 11.9296C6.38824 12.1285 6.68062 12.2499 7.00001 12.2499H9.66668C10.3542 12.2499 10.9167 11.6875 10.9167 10.9999C10.9167 10.3124 10.3542 9.74992 9.66668 9.74992H7.00001C6.68062 9.74992 6.38824 9.87129 6.16668 10.0702C5.94512 9.87129 5.65273 9.74992 5.33334 9.74992H4.00001C3.31246 9.74992 2.75001 10.3124 2.75001 10.9999C2.75001 11.6875 3.31246 12.2499 4.00001 12.2499Z"
        fill="#000F1E" stroke="#000F1E" stroke-width="1.5" />
</svg>
