<svg fill="none" height="32" viewBox="0 0 33 32" width="33" xmlns="http://www.w3.org/2000/svg">
    <path
        d="M16.1669 30.3333C15.1135 30.3333 14.1135 29.7866 13.4202 28.8533L12.0602 27.0666C11.7802 26.6933 11.4069 26.4799 11.0069 26.4533C10.6202 26.4266 10.2069 26.6133 9.87358 26.9466C8.72691 28.1733 7.60684 28.7599 6.55351 28.7333C5.83351 28.7066 5.20685 28.3866 4.72685 27.7999C4.67351 27.7333 4.6202 27.6399 4.5802 27.5466C4.0602 26.4266 3.82019 24.9066 3.82019 22.6266V9.39993C3.82019 7.11993 4.0602 5.61327 4.5802 4.47993C4.6202 4.39993 4.66018 4.31993 4.72685 4.25327C5.19351 3.65327 5.82024 3.33327 6.54024 3.29327C7.60691 3.25327 8.74023 3.8666 9.86023 5.0666C10.1936 5.4266 10.5935 5.59993 10.9935 5.57327C11.3935 5.5466 11.7668 5.33327 12.0468 4.95994L13.4069 3.15993C14.1002 2.2266 15.1002 1.67993 16.1535 1.67993C17.2069 1.67993 18.2069 2.2266 18.9002 3.15993L20.2469 4.9466C20.5269 5.33327 20.9135 5.5466 21.3269 5.57327C21.7135 5.59993 22.1268 5.41327 22.4602 5.0666C23.5535 3.89327 24.6335 3.29327 25.6735 3.29327C26.4202 3.29327 27.1135 3.6266 27.5935 4.25327C27.6469 4.31993 27.7002 4.39993 27.7402 4.49327C28.2602 5.61327 28.5002 7.13327 28.5002 9.41327V22.6399C28.5002 24.9199 28.2602 26.4266 27.7402 27.5599C27.6869 27.6799 27.6202 27.7866 27.5269 27.8799C27.1136 28.4133 26.4335 28.7466 25.6735 28.7466C24.6335 28.7466 23.5535 28.1466 22.4602 26.9733C22.1402 26.6266 21.7002 26.4399 21.3269 26.4666C20.9135 26.4933 20.5402 26.7066 20.2469 27.0933L18.9002 28.8799C18.2202 29.7866 17.2202 30.3333 16.1669 30.3333ZM10.9402 24.4399C10.9936 24.4399 11.0602 24.4399 11.1136 24.4399C12.1002 24.4933 13.0202 25.0133 13.6469 25.8533L15.0069 27.6533C15.6602 28.5333 16.6468 28.5333 17.3002 27.6666L18.6469 25.8799C19.2869 25.0266 20.2202 24.5199 21.2069 24.4666C22.1936 24.4133 23.1802 24.8266 23.9002 25.5999C24.8869 26.6533 25.4869 26.7333 25.6469 26.7333C25.7535 26.7333 25.8469 26.7066 25.9402 26.6266C26.3136 25.7866 26.4735 24.5199 26.4735 22.6266V9.39993C26.4735 7.53327 26.3002 6.2666 25.9402 5.4266C25.8336 5.3066 25.7269 5.29327 25.6469 5.29327C25.4869 5.29327 24.8869 5.37327 23.9002 6.4266C23.1802 7.19993 22.1936 7.61327 21.2069 7.55993C20.2069 7.5066 19.2735 6.9866 18.6335 6.1466L17.2869 4.35993C16.6336 3.47993 15.6469 3.47993 14.9935 4.35993L13.6335 6.17327C13.0068 7.01327 12.0869 7.51993 11.1002 7.57327C10.1136 7.6266 9.12686 7.21327 8.40686 6.45327C7.59353 5.57327 6.96691 5.27994 6.62024 5.29327C6.54024 5.29327 6.44688 5.31993 6.34021 5.4266C5.98021 6.2666 5.80684 7.53327 5.80684 9.39993V22.6266C5.80684 24.5066 5.98021 25.7733 6.34021 26.6133C6.46021 26.7199 6.54024 26.7333 6.62024 26.7466C6.95357 26.7599 7.58018 26.4666 8.39351 25.5999C9.10018 24.8399 10.0202 24.4399 10.9402 24.4399Z"
        fill="#007BA8" />
    <path
        d="M22.1665 14.6667H11.4999C10.9532 14.6667 10.4999 14.2134 10.4999 13.6667C10.4999 13.1201 10.9532 12.6667 11.4999 12.6667H22.1665C22.7132 12.6667 23.1665 13.1201 23.1665 13.6667C23.1665 14.2134 22.7132 14.6667 22.1665 14.6667Z"
        fill="#007BA8" />
    <path
        d="M19.4999 19.3333H11.4999C10.9532 19.3333 10.4999 18.8799 10.4999 18.3333C10.4999 17.7866 10.9532 17.3333 11.4999 17.3333H19.4999C20.0465 17.3333 20.4999 17.7866 20.4999 18.3333C20.4999 18.8799 20.0465 19.3333 19.4999 19.3333Z"
        fill="#007BA8" />
</svg>
